# Blender v2.90.1 OBJ File: 'level-1.blend'
# www.blender.org
mtllib assets/level.mtl
o Level
v -3.721678 -0.049381 -0.189361
v -3.721678 2.350619 1.010639
v -3.721678 -0.049381 1.010639
v -0.121678 -0.049381 1.010639
v -2.521678 -0.049381 1.010639
v -1.321678 -0.049381 2.210639
v -0.121678 -0.049381 2.210639
v -2.521678 -0.049381 -1.389361
v -1.321678 -0.049381 -0.189361
v -1.321678 -0.049381 -1.389361
v -0.121678 -0.049381 4.610639
v 3.478322 2.350619 4.610639
v 1.078322 -1.249381 4.610639
v -1.321678 -0.049381 3.239780
v -1.321678 -0.349381 -1.389361
v -1.321678 -0.349381 -0.189361
v -1.321678 -3.649381 -0.189361
v -0.121678 -3.649381 1.010639
v -2.521678 2.350619 -1.389361
v 0.178322 2.350619 -1.389361
v 1.078322 -1.249381 2.210639
v -1.621678 -0.049381 2.510639
v -2.821678 2.350619 1.310639
v -2.821678 -0.049381 1.310639
v -0.121678 -3.649381 2.210639
v 2.278322 -3.649381 1.010639
v 0.178322 -0.049381 -1.389361
v -1.321678 2.350619 4.610639
v 3.478322 -1.249381 2.210639
v 3.478322 -1.249381 1.010639
v 4.678322 -3.649381 -0.189361
v 4.678322 -1.249381 1.010639
v 3.478322 -3.649381 1.010639
v 3.478322 -3.649381 -0.189361
v 4.678322 -0.049381 -1.389361
v 4.678322 -0.349381 -1.389361
v 3.478322 2.350619 1.010639
v 3.478322 0.406111 2.768096
v 3.478322 0.885490 3.099420
v 0.178322 1.681293 -2.392141
v 0.178322 1.681293 -2.899848
v 0.178322 2.350619 -3.789361
v -3.721678 2.350619 -0.189361
v -7.921679 -0.049381 2.210639
v -7.921679 2.350619 1.010639
v -7.921679 2.350619 4.610639
v 4.978322 -0.049381 -1.389361
v 4.978322 2.350619 1.310639
v 4.978322 -1.249381 1.310639
v -2.821678 -0.049381 -3.489362
v -4.021678 2.350619 -4.689362
v -4.021678 -0.049381 -4.689362
v -5.221678 -0.049381 -4.689362
v -5.221678 2.350619 2.210639
v -5.221678 -0.049381 2.210639
v -1.321678 1.769468 4.610639
v 4.678322 2.350619 1.010639
v 4.678322 2.350619 -1.389361
v -2.521678 2.350619 1.010639
v 3.778322 2.350619 1.310639
v 3.778322 -1.249381 1.310639
v 0.178322 -0.049381 -3.789361
v 7.078322 2.350619 -3.789361
v -4.021678 2.350619 1.310639
v -4.021678 -0.049381 1.310639
v -1.621678 2.350619 2.510639
v -1.621678 1.339262 3.239780
v -1.621678 1.769468 3.730645
v 0.178322 -0.049381 -3.264387
v 0.178322 -0.049381 -2.004030
v 7.078322 -0.049381 -1.389361
v 7.078322 2.350619 3.410639
v 7.078322 -0.049381 -3.789361
v 5.878322 -1.249381 4.610639
v 7.078322 -1.249381 3.410639
v 7.078322 -1.249381 1.310639
v 3.778322 0.885490 4.610639
v 3.778322 2.350619 4.610639
v 5.878322 2.350619 4.610639
v 4.978322 2.350619 -1.389361
v 2.278322 -3.649381 2.210639
v 7.078322 -0.349381 -1.389361
v 7.078322 -3.649381 -3.789361
v 7.078322 -1.249381 1.010639
v -1.321678 -3.649381 -2.589361
v 3.478322 -3.649381 -2.589361
v -3.721678 -2.449381 -2.589361
v -5.521678 -2.449381 -0.189361
v -3.721678 -2.449381 -0.189361
v 7.078322 -3.649381 1.010639
v -7.921679 -2.449381 -0.189361
v -7.921679 -2.449381 -2.589361
v 4.678322 -3.649381 -3.789361
v 4.678322 -3.649381 -2.589361
v -2.521678 -3.649381 -0.189361
v 4.678322 -1.249381 -3.789361
v 3.478322 -1.249381 -3.789361
v 3.478322 -3.649381 -3.789361
v 4.678322 -3.649381 1.010639
v -4.021678 -0.049381 -0.489361
v -5.221678 2.350619 -4.689362
v -5.521678 -0.049381 2.210639
v -5.521678 2.350619 2.210639
v -2.521678 -3.649381 -2.589361
v -2.521678 -0.349381 -2.589361
v -5.521678 -0.349381 -0.189361
v -5.521678 2.350619 1.010639
v -5.521678 -0.349381 -1.689361
v -2.821678 2.350619 -1.689361
v -0.121678 -0.049381 -1.689361
v -2.821678 -0.049381 -1.689361
v -4.021678 2.350619 -0.489361
v -0.121678 1.681293 -2.392141
v -0.121678 2.350619 -1.689361
v -0.121678 2.350619 -3.489362
v -0.121678 -0.049381 -3.489362
v -2.821678 2.350619 -3.489362
v -1.321678 -1.249381 -3.789361
v -1.321678 -3.649381 -3.789361
v -2.521678 -1.249381 -3.789361
v -7.921679 -0.349381 -2.589361
v -7.921679 -0.349381 -1.689361
v -7.921679 -0.049381 4.610639
v -0.121678 -0.049381 -3.264387
v -1.321678 2.350619 2.210639
v -1.321678 1.769468 3.730645
v -1.321678 1.339262 3.239780
v 7.078322 -0.349381 -3.789361
v -2.521678 -0.349381 -3.789361
v -1.621678 -0.049381 3.239780
v -1.621678 2.350619 4.610639
v -0.121678 1.334524 -2.004030
v -0.121678 1.681293 -2.899848
v 0.178322 1.334524 -3.264387
v -0.121678 1.334524 -3.264387
v 0.178322 1.334524 -2.004030
v -0.121678 -0.049381 -2.004030
v -1.621678 1.769468 4.610639
v 3.778322 0.406111 2.768096
v 3.478322 -1.249381 2.768096
v 3.778322 0.885490 3.099420
v 3.478322 0.885490 4.610639
v 3.778322 -1.249381 2.768096
vt -3.233296 2.967245
vt -4.266358 5.033368
vt -4.266358 2.967245
vt -6.801005 2.953363
vt -9.858781 4.998886
vt -7.822957 1.934642
vt -19.784817 2.782454
vt -20.806952 3.042399
vt -20.807987 2.786605
vt -20.819412 -0.027113
vt -22.253933 3.048271
vt -22.266392 -0.021245
vt -1.772326 5.033368
vt -0.739265 2.967245
vt 0.552063 5.033367
vt 0.632984 2.985867
vt -0.827986 5.051991
vt -0.827986 2.985868
vt 0.552063 2.967245
vt -5.777434 4.992420
vt 1.081511 1.841764
vt -0.118599 -0.841764
vt 1.081511 -0.841764
vt -0.192297 2.998116
vt -1.219546 5.052616
vt -1.219546 2.998116
vt -2.246796 2.998116
vt -3.590570 2.938299
vt -3.590570 2.675616
vt -1.489106 1.887568
vt -0.438373 5.039765
vt 1.100473 3.337132
vt 1.390584 3.756881
vt -18.504814 3.033056
vt -14.668966 2.761692
vt -14.667923 3.017489
vt 1.415339 4.457154
vt 1.852417 4.457154
vt 2.618186 5.033366
vt -1.772326 2.967246
vt -3.233296 5.033369
vt 1.871844 2.939614
vt 2.895414 4.978665
vt -0.165592 4.983521
vt 0.290760 2.978804
vt -2.025459 5.037664
vt -2.025459 1.949372
vt -6.570318 2.984621
vt -8.008999 5.036838
vt -8.017302 2.990494
vt -9.040474 2.994644
vt -14.915407 5.064865
vt -14.923710 3.018521
vt -5.778216 4.498274
vt -5.299420 2.967245
vt -1.489106 5.039762
vt -3.590570 5.039765
vt -5.299420 5.033368
vt -6.760389 2.967246
vt -3.054891 5.037664
vt -3.054890 1.949372
vt -0.438374 1.887568
vt -25.334635 2.982743
vt -19.464455 5.014119
vt -25.331394 5.023418
vt -1.861047 5.051991
vt -1.861048 2.985868
vt 0.632985 5.051991
vt 1.260690 4.181329
vt 1.683270 4.551687
vt -17.427013 2.970206
vt -13.342424 5.004411
vt -11.904305 1.941110
vt -13.347281 1.943395
vt -15.132875 1.946227
vt -10.115836 3.753520
vt -10.113860 4.999292
vt -11.899451 5.002124
vt 0.290760 5.037664
vt 0.548118 2.978803
vt 0.548118 5.037666
vt -19.467690 2.973442
vt -26.358011 2.016305
vt -25.342432 -0.014861
vt -24.326845 2.016305
vt -23.311260 -0.014863
vt -23.311260 3.031888
vt 21.767981 2.652999
vt 19.722870 -0.149694
vt 23.807446 1.884512
vt 23.804214 -0.156158
vt -1.223339 5.038099
vt -1.223339 2.983599
vt -0.196091 2.983599
vt -2.227418 2.974450
vt -1.200169 2.974450
vt -1.200170 5.028945
vt -1.200430 5.011963
vt -1.187088 2.957510
vt -0.159861 2.964179
vt -3.410640 2.985868
vt -9.032170 5.040990
vt -15.179501 3.019561
vt -15.171200 5.065903
vt 9.521119 0.886814
vt 10.539838 -0.135139
vt 10.544283 2.670783
vt -16.194370 5.070055
vt -17.226889 2.772072
vt -18.505852 2.777266
vt -17.234152 0.981523
vt -4.871609 5.051992
vt -7.195999 2.985870
vt -4.871610 2.985869
vt -3.410640 5.051992
vt -7.801013 4.475779
vt -7.195999 5.051992
vt -8.745592 5.051994
vt -4.268182 2.975279
vt -6.562016 5.030966
vt -2.252161 2.983599
vt -1.224912 2.983599
vt -1.224912 5.038099
vt 11.563408 1.903913
vt -19.796234 -0.031268
vt -18.768911 0.987750
vt 5.952777 2.678061
vt 5.187526 2.679275
vt 5.949944 0.892477
vt -0.168826 2.942849
vt 3.909277 0.895709
vt -6.760389 5.033368
vt -8.068939 4.533064
vt -7.646361 4.162707
vt 16.665091 1.895829
vt 12.580509 -0.138377
vt 16.661852 -0.144845
vt 25.844887 -0.159391
vt 25.848122 1.881284
vt 17.682192 -0.146461
vt 19.727312 2.656231
vt 17.685425 1.894212
vt 11.564620 2.669163
vt 12.583739 1.902296
vt -19.783775 3.038247
vt 0.731796 0.315099
vt 1.306750 0.646510
vt 0.731796 0.646510
vt 0.170932 0.315099
vt 0.170932 0.646510
vt -0.384875 0.315099
vt -0.384875 0.646510
vt -1.184684 2.971012
vt -1.439407 4.146055
vt -1.439407 2.971012
vt -1.184236 4.146055
vt -0.929513 2.971012
vt -0.929513 4.146055
vt -0.674341 4.146055
vt -0.929064 2.966989
vt -0.674341 2.966989
vt 0.362361 -0.005959
vt -0.293549 0.295513
vt -0.293549 -0.005959
vt 1.246674 -0.005959
vt 0.362361 0.295513
vt -5.523133 4.497871
vt 0.612358 1.887568
vt -4.305183 3.369550
vt -0.611393 2.959165
vt -0.356670 4.364805
vt -0.611393 4.364805
vt 1.645806 0.312575
vt 0.978380 0.656175
vt 0.978379 0.312575
vt -0.752471 0.656175
vt -0.752471 0.312575
vt -23.289558 -0.017090
vt -23.277103 3.052424
vt -0.118599 1.841764
vt 1.100473 1.887568
vt 2.713823 3.756879
vt 2.713823 5.039765
vt 1.081221 4.158627
vt 1.081221 2.967245
vt 2.166243 2.967245
vt 2.618186 2.967245
vt 2.166243 4.158627
vt 1.260690 2.985867
vt 2.440843 4.551686
vt 2.440842 5.051991
vt -9.860755 3.753114
vt -7.466892 2.985870
vt -7.466892 4.177252
vt -8.745592 2.985871
vt -8.551915 4.177252
vt -8.551915 2.985871
vt -8.238088 4.475779
vt -4.259876 5.021623
vt -7.646361 2.967245
vt -8.826512 5.033369
vt -8.826512 4.533064
vt 1.306750 0.315099
vt -1.184684 4.146055
vt -1.184236 2.971012
vt -0.929064 4.146055
vt 1.246674 0.295514
vt -5.885824 5.037666
vt -5.885825 3.780791
vt -4.589413 3.780790
vt -4.305183 1.949371
vt -0.356670 2.959164
vt 1.645806 0.656175
vt -5.522351 4.992014
vt 0.785498 -0.366247
vt -1.349338 -0.366247
vt -0.281919 -1.433665
vt 0.785498 -1.433665
vt -1.349338 1.768590
vt -0.281919 0.701172
vt -0.281919 1.768590
vt -0.281919 -2.349102
vt 0.785498 -3.568501
vt 1.852916 -1.433665
vt 0.785498 -1.433665
vt 2.920334 -0.366247
vt 0.785498 -0.366247
vt -2.416757 -0.366247
vt -2.416757 0.701172
vt 1.052353 3.436453
vt 1.052353 2.315346
vt 5.055172 1.768590
vt 7.190007 3.903426
vt 5.322025 1.768590
vt 7.190007 1.768590
vt -0.281919 2.836008
vt 3.987753 0.701172
vt 3.987753 2.836008
vt -2.416757 2.836008
vt -4.017883 0.701172
vt -2.416757 0.701172
vt -6.152719 0.701172
vt -6.152719 2.836008
vt 5.055172 3.903426
vt 5.055172 2.836008
vt 7.190007 3.903426
vt 5.055172 0.701172
vt -1.349338 0.701172
vt -0.281919 0.701172
vt -1.349338 2.836008
vt -4.017883 -1.433665
vt 0.785498 3.436453
vt 0.785498 3.636571
vt -1.616192 3.636571
vt -0.281919 3.903426
vt 5.055172 -0.366247
vt 7.190007 -0.366247
vt 5.322025 -0.633102
vt 7.190007 -0.633102
vt -2.683610 0.968027
vt -2.683610 4.703990
vt -3.751028 4.703990
vt -3.751028 -1.433665
vt -2.683610 -0.633102
vt -0.548774 -1.700520
vt -1.616192 -0.633102
vt -0.548774 -2.349102
vt -6.152719 -3.568501
vt -6.152719 -1.433665
vt 3.987753 -0.366247
vt 7.190007 -2.501083
vt 6.122590 -3.568501
vt 0.785498 2.315346
vt 1.852916 -3.568501
vt 3.987753 -1.433665
vt 3.987753 -1.929532
vt 2.920334 -1.433665
vt 1.052353 3.903426
vt 1.052353 1.768590
vt -1.616192 2.035445
vt 0.785498 2.035445
vt 3.987753 3.903426
vt 4.254608 -1.929532
vt 4.254608 -0.633102
vt 0.899557 1.495172
vt 0.041242 -0.424075
vt 0.899556 -0.424076
vt 0.913602 1.500852
vt 0.042993 -0.445888
vt 0.913602 -0.445888
vt 0.002765 -3.407894
vt -0.976705 0.020253
vt 0.002765 0.020253
vt 0.910498 1.481684
vt 0.052185 -0.437564
vt 0.910499 -0.437564
vt 0.982235 -5.366834
vt -1.221574 -3.407893
vt 0.982235 -3.407893
vt -0.976705 6.876543
vt 0.982234 4.917604
vt -0.976705 4.917604
vt -1.956176 -5.366834
vt -1.221573 -5.366834
vt -1.956176 -0.959217
vt -2.935645 -0.959218
vt 1.961706 -3.407893
vt 3.920645 -5.366834
vt 3.920645 -0.224615
vt 1.961706 -3.163025
vt 2.206572 -0.224615
vt 1.227102 -1.204086
vt 1.227102 -2.183556
vt -0.242103 -2.183556
vt -3.670248 -3.163026
vt -3.670248 -2.183556
vt -1.221574 -1.204085
vt -2.690778 0.999723
vt -2.690778 -1.204086
vt 0.002765 -1.938688
vt 0.982235 -0.959217
vt 0.982235 -1.938688
vt -0.976705 -0.959217
vt -0.976705 1.244590
vt 1.961705 0.020253
vt 3.920645 3.938134
vt 3.920645 0.020253
vt 0.982234 3.938134
vt 0.982234 4.917604
vt -0.976705 4.917604
vt -2.935645 1.244590
vt -2.935646 6.876543
vt -0.976705 5.162473
vt 1.227102 5.162473
vt 2.941175 6.876543
vt 3.920645 5.897073
vt 3.920645 4.183002
vt 1.227102 4.183002
vt 0.041243 1.495173
vt 0.042993 1.500852
vt 0.052185 1.481684
vt 0.982234 6.876543
vt -1.221574 0.999723
vt -2.935646 6.876543
vn 1.0000 0.0000 0.0000
vn 0.0000 0.0000 -1.0000
vn 0.7071 0.0000 -0.7071
vn 0.0000 -0.0000 1.0000
vn -0.7071 -0.0000 0.7071
vn -0.8944 0.4472 0.0000
vn -1.0000 0.0000 0.0000
vn 0.7071 -0.0000 0.7071
vn -0.7071 0.0000 -0.7071
vn 0.0000 -0.7457 -0.6663
vn 0.0000 -1.0000 0.0000
vn 0.0000 -0.7245 0.6892
vn 0.0000 -0.7520 0.6591
vn 0.0000 -0.5686 0.8226
vn 0.0000 1.0000 0.0000
vn 0.7071 0.7071 0.0000
vn 0.0000 0.7071 -0.7071
vn 0.0000 0.9138 0.4061
vn 0.0000 0.4472 -0.8944
vn 0.0000 0.4472 0.8944
vn 0.0000 -0.7071 0.7071
vn 0.0000 -0.9363 -0.3511
g Level_Level_wall
usemtl wall
s 1
f 1/1/1 2/2/1 3/3/1
f 11/4/2 12/5/2 13/6/2
f 15/7/1 9/8/1 16/9/1
f 17/10/3 4/11/3 18/12/3
f 4/11/3 17/10/3 16/9/3
f 4/11/3 16/9/3 9/8/3
f 19/13/4 10/14/4 20/15/4
f 22/16/5 23/17/5 24/18/5
f 27/19/4 20/15/4 10/14/4
f 11/4/2 28/20/2 12/5/2
f 26/21/6 29/22/6 30/23/6
f 26/24/2 30/25/2 33/26/2
f 34/27/7 33/26/7 30/25/7
f 35/28/7 36/29/7 32/30/7
f 37/31/7 38/32/7 39/33/7
f 27/34/4 36/35/4 35/36/4
f 40/37/1 41/38/1 42/39/1
f 8/40/8 43/41/8 1/1/8
f 44/42/1 45/43/1 46/44/1
f 47/45/1 48/46/1 49/47/1
f 8/40/4 10/14/4 19/13/4
f 50/48/5 51/49/5 52/50/5
f 53/51/1 54/52/1 55/53/1
f 11/4/2 56/54/2 28/20/2
f 2/2/2 5/55/2 3/3/2
f 35/28/7 57/56/7 58/57/7
f 59/58/3 6/59/3 5/55/3
f 49/47/4 60/60/4 61/61/4
f 57/56/2 30/62/2 37/31/2
f 62/63/4 63/64/4 42/65/4
f 24/18/4 64/66/4 65/67/4
f 66/68/7 67/69/7 68/70/7
f 71/71/7 72/72/7 63/64/7
f 74/73/9 72/72/9 75/74/9
f 76/75/7 75/74/7 72/72/7
f 77/76/2 78/77/2 79/78/2
f 76/75/7 72/72/7 71/71/7
f 80/79/2 35/80/2 58/81/2
f 71/71/7 63/64/7 73/82/7
f 29/83/2 81/84/2 21/85/2
f 21/85/2 25/86/2 7/87/2
f 25/86/2 21/85/2 81/84/2
f 82/88/7 83/89/7 84/90/7
f 83/89/7 90/91/7 84/90/7
f 97/92/7 98/93/7 86/94/7
f 94/95/1 93/96/1 96/97/1
f 32/98/1 99/99/1 31/100/1
f 64/66/7 100/101/7 65/67/7
f 52/50/4 101/102/4 53/51/4
f 102/103/4 54/52/4 103/104/4
f 87/105/4 104/106/4 105/107/4
f 103/104/7 107/108/7 106/109/7
f 106/109/7 107/108/7 108/110/7
f 106/109/7 88/111/7 102/103/7
f 109/112/2 110/113/2 111/114/2
f 112/115/9 111/114/9 100/101/9
f 113/116/7 114/117/7 115/118/7
f 116/119/4 117/120/4 50/48/4
f 85/121/1 119/122/1 118/123/1
f 120/124/1 105/107/1 104/106/1
f 17/10/2 95/125/2 16/9/2
f 88/111/2 106/109/2 89/126/2
f 16/9/2 89/126/2 106/109/2
f 95/125/2 89/126/2 16/9/2
f 121/127/1 122/128/1 92/129/1
f 105/107/4 121/127/4 87/105/4
f 123/130/1 44/42/1 46/44/1
f 106/109/7 102/103/7 103/104/7
f 92/129/4 87/105/4 121/127/4
f 92/129/1 122/128/1 91/131/1
f 125/132/1 126/133/1 127/134/1
f 122/128/1 44/42/1 91/131/1
f 97/135/4 119/136/4 98/137/4
f 84/90/2 99/138/2 32/139/2
f 93/140/4 128/141/4 96/142/4
f 83/89/4 128/141/4 93/140/4
f 129/143/1 105/107/1 120/124/1
f 129/143/4 120/124/4 118/144/4
f 82/88/7 128/141/7 83/89/7
f 27/34/4 10/145/4 15/7/4
f 97/135/4 129/143/4 118/144/4
f 40/146/10 132/147/10 113/148/10
f 41/149/11 113/148/11 133/150/11
f 134/151/12 133/150/12 135/152/12
f 69/153/4 135/154/4 124/155/4
f 136/156/2 137/157/2 132/158/2
f 127/159/4 130/160/4 14/161/4
f 126/162/13 67/163/13 127/164/13
f 56/165/11 68/166/11 126/162/11
f 138/167/2 56/54/2 11/4/2
f 29/168/7 37/31/7 30/62/7
f 139/169/1 61/61/1 60/60/1
f 140/170/4 139/171/4 38/172/4
f 38/173/14 141/174/14 39/175/14
f 39/175/11 77/176/11 142/177/11
f 1/1/1 43/41/1 2/2/1
f 15/7/1 10/145/1 9/8/1
f 22/16/5 66/68/5 23/17/5
f 25/178/1 18/12/1 4/11/1
f 4/11/1 7/179/1 25/178/1
f 26/21/6 81/180/6 29/22/6
f 37/31/7 29/168/7 38/32/7
f 29/168/7 140/181/7 38/32/7
f 142/182/7 12/183/7 39/33/7
f 12/183/7 37/31/7 39/33/7
f 27/34/4 15/7/4 36/35/4
f 20/15/1 27/19/1 136/184/1
f 27/19/1 70/185/1 136/184/1
f 69/186/1 62/187/1 134/188/1
f 62/187/1 42/39/1 134/188/1
f 20/15/1 136/184/1 40/37/1
f 41/38/1 134/188/1 42/39/1
f 20/15/1 40/37/1 42/39/1
f 8/40/8 19/13/8 43/41/8
f 47/45/1 80/79/1 48/46/1
f 50/48/5 117/120/5 51/49/5
f 53/51/1 101/102/1 54/52/1
f 2/2/2 59/58/2 5/55/2
f 35/28/7 32/30/7 57/56/7
f 59/58/3 125/132/3 6/59/3
f 49/47/4 48/46/4 60/60/4
f 57/56/2 32/30/2 30/62/2
f 62/63/4 73/82/4 63/64/4
f 24/18/4 23/17/4 64/66/4
f 66/68/7 22/16/7 67/69/7
f 22/16/7 130/189/7 67/69/7
f 138/190/7 131/191/7 68/70/7
f 131/191/7 66/68/7 68/70/7
f 74/73/9 79/78/9 72/72/9
f 13/6/2 12/5/2 142/192/2
f 79/78/2 74/73/2 77/76/2
f 80/79/2 47/45/2 35/80/2
f 64/66/7 112/115/7 100/101/7
f 52/50/4 51/49/4 101/102/4
f 102/103/4 55/53/4 54/52/4
f 109/112/2 114/117/2 110/113/2
f 112/115/9 109/112/9 111/114/9
f 137/193/7 110/113/7 132/194/7
f 110/113/7 114/117/7 132/194/7
f 115/118/7 116/195/7 135/196/7
f 116/195/7 124/197/7 135/196/7
f 113/116/7 132/194/7 114/117/7
f 115/118/7 135/196/7 133/198/7
f 133/198/7 113/116/7 115/118/7
f 116/119/4 115/199/4 117/120/4
f 14/200/1 6/59/1 127/134/1
f 6/59/1 125/132/1 127/134/1
f 125/132/1 28/201/1 126/133/1
f 28/201/1 56/202/1 126/133/1
f 122/128/1 45/43/1 44/42/1
f 97/135/4 118/144/4 119/136/4
f 84/90/2 90/91/2 99/138/2
f 40/146/10 136/203/10 132/147/10
f 41/149/11 40/146/11 113/148/11
f 134/151/12 41/149/12 133/150/12
f 69/153/4 134/204/4 135/154/4
f 136/156/2 70/205/2 137/157/2
f 127/159/4 67/206/4 130/160/4
f 126/162/13 68/166/13 67/163/13
f 56/165/11 138/207/11 68/166/11
f 78/208/1 77/209/1 141/210/1
f 139/169/1 143/211/1 61/61/1
f 60/60/1 78/208/1 141/210/1
f 141/210/1 139/169/1 60/60/1
f 140/170/4 143/212/4 139/171/4
f 38/173/14 139/213/14 141/174/14
f 39/175/11 141/174/11 77/176/11
f 77/76/2 74/73/2 142/192/2
f 13/6/2 142/192/2 74/73/2
f 11/4/2 123/130/2 138/167/2
f 123/130/2 46/44/2 138/167/2
f 138/167/2 46/44/2 131/214/2
f 96/142/4 128/141/4 97/135/4
f 97/135/4 128/141/4 129/143/4
g Level_Level_floor
usemtl floor
f 4/215/15 5/216/15 6/217/15
f 7/218/15 4/215/15 6/217/15
f 8/219/15 9/220/15 10/221/15
f 7/218/15 6/217/15 14/222/15
f 8/219/15 5/216/15 9/220/15
f 11/223/16 21/224/16 7/218/16
f 25/225/15 26/226/15 18/227/15
f 3/228/15 5/216/15 1/229/15
f 69/230/15 70/231/15 35/232/15
f 73/233/15 47/234/15 71/235/15
f 85/236/15 34/237/15 86/238/15
f 87/239/15 88/240/15 89/241/15
f 91/242/15 88/240/15 92/243/15
f 93/244/15 94/245/15 83/246/15
f 31/247/15 83/246/15 94/245/15
f 85/236/15 95/248/15 17/249/15
f 104/250/16 89/241/16 95/248/16
f 88/240/15 87/239/15 92/243/15
f 91/242/17 102/251/17 88/240/17
f 124/252/15 116/253/15 50/254/15
f 47/234/15 73/233/15 35/232/15
f 86/238/15 119/255/15 85/236/15
f 94/245/15 34/237/15 31/247/15
f 99/256/15 90/257/15 31/247/15
f 71/235/18 49/258/18 76/259/18
f 100/260/15 50/254/15 52/261/15
f 53/262/15 100/260/15 52/261/15
f 55/263/15 100/260/15 53/262/15
f 100/260/15 55/263/15 65/264/15
f 65/264/15 22/265/15 24/266/15
f 55/263/15 130/267/15 22/265/15
f 123/268/15 102/251/15 44/269/15
f 33/270/15 34/237/15 26/226/15
f 26/226/15 17/249/15 18/227/15
f 76/259/15 49/258/15 75/271/15
f 75/271/15 49/258/15 74/272/15
f 102/251/15 123/268/15 55/263/15
f 137/273/15 69/230/15 124/252/15
f 4/215/15 9/220/15 5/216/15
f 11/223/15 7/218/15 14/222/15
f 8/219/15 1/229/15 5/216/15
f 11/223/16 13/274/16 21/224/16
f 29/275/15 21/224/15 140/276/15
f 21/224/15 13/274/15 140/276/15
f 25/225/15 81/277/15 26/226/15
f 73/233/15 62/278/15 35/232/15
f 62/278/15 69/230/15 35/232/15
f 70/231/15 27/279/15 35/232/15
f 85/236/15 17/249/15 34/237/15
f 31/247/15 90/257/15 83/246/15
f 85/236/15 104/250/15 95/248/15
f 104/250/16 87/239/16 89/241/16
f 91/242/17 44/269/17 102/251/17
f 50/254/15 111/280/15 137/273/15
f 111/280/15 110/281/15 137/273/15
f 137/273/15 124/252/15 50/254/15
f 86/238/15 98/282/15 119/255/15
f 94/245/15 86/238/15 34/237/15
f 71/235/18 47/234/18 49/258/18
f 100/260/15 111/280/15 50/254/15
f 65/264/15 55/263/15 22/265/15
f 11/223/15 55/263/15 123/268/15
f 26/226/15 34/237/15 17/249/15
f 74/272/15 49/258/15 143/283/15
f 49/258/15 61/284/15 143/283/15
f 137/273/15 70/231/15 69/230/15
f 14/222/15 130/267/15 11/223/15
f 140/276/15 74/272/15 143/283/15
f 140/276/15 13/274/15 74/272/15
f 55/263/15 11/223/15 130/267/15
g Level_Level_ceiling
usemtl ceiling
f 31/285/19 30/286/19 32/287/19
f 96/288/20 86/289/20 94/290/20
f 106/291/11 15/292/11 16/293/11
f 118/294/20 104/295/20 85/296/20
f 45/297/21 108/298/21 107/299/21
f 82/300/22 32/301/22 36/302/22
f 121/303/11 108/298/11 122/304/11
f 105/305/11 108/298/11 121/303/11
f 105/305/11 129/306/11 15/292/11
f 107/299/11 103/307/11 45/297/11
f 45/297/11 103/307/11 46/308/11
f 131/309/11 54/310/11 66/311/11
f 66/311/11 54/310/11 23/312/11
f 23/312/11 54/310/11 64/313/11
f 54/310/11 112/314/11 64/313/11
f 101/315/11 51/316/11 112/314/11
f 51/316/11 109/317/11 112/314/11
f 115/318/11 109/317/11 117/319/11
f 43/320/11 59/321/11 2/322/11
f 19/323/11 20/324/11 59/321/11
f 59/321/11 20/324/11 125/325/11
f 12/326/11 125/325/11 20/324/11
f 12/326/11 28/327/11 125/325/11
f 37/328/11 12/326/11 20/324/11
f 57/329/11 37/328/11 58/330/11
f 37/328/11 20/324/11 58/330/11
f 20/324/11 42/331/11 58/330/11
f 63/332/11 58/330/11 42/331/11
f 58/330/11 63/332/11 80/333/11
f 80/333/11 63/332/11 48/334/11
f 63/332/11 72/335/11 48/334/11
f 72/335/11 79/336/11 48/334/11
f 79/336/11 78/337/11 48/334/11
f 60/338/11 48/334/11 78/337/11
f 31/285/19 34/339/19 30/286/19
f 96/288/20 97/340/20 86/289/20
f 106/291/11 108/298/11 15/292/11
f 118/294/20 120/341/20 104/295/20
f 45/297/21 122/304/21 108/298/21
f 82/300/22 84/342/22 32/301/22
f 105/305/11 15/292/11 108/298/11
f 54/310/11 101/315/11 112/314/11
f 51/316/11 117/319/11 109/317/11
f 115/318/11 114/343/11 109/317/11
f 43/320/11 19/323/11 59/321/11
f 103/307/11 131/309/11 46/308/11
f 54/310/11 131/309/11 103/307/11
f 15/292/11 129/306/11 128/344/11
f 128/344/11 82/300/11 15/292/11
l 27 110
